<svg width="10" height="10" viewBox="0 0 10 10" version="1.1" xmlns="http://www.w3.org/2000/svg" xmlns:xlink="http://www.w3.org/1999/xlink">
<title>Capa 1 10</title>
<desc>Created using Figma</desc>
<g id="Canvas" transform="translate(450 -419)">
<g id="Capa 1 10">
<g id="Group">
<g id="Vector">
<use xlink:href="#path0_fill" transform="translate(-450 419)" fill="#4F4F4F"/>
</g>
</g>
</g>
</g>
<defs>
<path id="path0_fill" d="M 0.153796 1.36719L 1.02944 1.36719L 1.02944 8.63292L 0.153796 8.63292C 0.0688007 8.63292 1.06515e-10 8.70172 1.06515e-10 8.78672C 1.06515e-10 8.87171 0.0688007 8.94063 0.153796 8.94063L 1.05926 8.94063L 1.05926 9.8462C 1.05926 9.9312 1.12817 10 1.21306 10C 1.29805 10 1.36686 9.9312 1.36686 9.8462L 1.36686 8.94063L 8.61639 8.94063L 8.61639 9.8462C 8.61639 9.9312 8.6853 10 8.77019 10C 8.8553 10 8.92399 9.9312 8.92399 9.8462L 8.92399 8.94063L 9.82967 8.94063C 9.91456 8.94063 9.98347 8.87171 9.98347 8.78672C 9.98347 8.70172 9.91456 8.63292 9.82967 8.63292L 8.92399 8.63292L 8.92399 1.36719L 9.82967 1.36719C 9.91456 1.36719 9.98347 1.29839 9.98347 1.21339C 9.98347 1.1284 9.91456 1.0596 9.82967 1.0596L 8.92399 1.0596L 8.92399 0.153796C 8.92399 0.0688007 8.8553 0 8.77019 0C 8.6853 0 8.61639 0.0688007 8.61639 0.153796L 8.61639 1.04564L 1.36697 1.04564L 1.36697 0.153796C 1.36697 0.0688007 1.29817 0 1.21317 0C 1.12829 0 1.05937 0.0688007 1.05937 0.153796L 1.05937 1.05949L 0.153908 1.05949C 0.0689124 1.05949 0.00011169 1.12829 0.00011169 1.21328C 0.00011169 1.29828 0.0689124 1.36719 0.153796 1.36719ZM 6.27549 1.36027L 8.61639 1.36027L 8.61639 3.71836L 6.27549 3.71836L 6.27549 1.36027ZM 6.27549 3.82089L 8.61639 3.82089L 8.61639 6.17218L 6.27549 6.17218L 6.27549 3.82089ZM 6.27549 6.28164L 8.61639 6.28164L 8.61639 8.63292L 6.27549 8.63292L 6.27549 6.28164ZM 3.81486 1.36027L 6.17296 1.36027L 6.17296 3.71836L 3.81486 3.71836L 3.81486 1.36027ZM 3.81486 3.82101L 6.17296 3.82101L 6.17296 6.1724L 3.81486 6.1724L 3.81486 3.82101ZM 3.81486 6.28164L 6.17296 6.28164L 6.17296 8.63292L 3.81486 8.63292L 3.81486 6.28164ZM 1.35412 1.36027L 3.71222 1.36027L 3.71222 3.71848L 1.35412 3.71848L 1.35412 1.36027ZM 1.35412 3.82101L 3.71222 3.82101L 3.71222 6.1724L 1.35412 6.1724L 1.35412 3.82101ZM 1.35412 6.28164L 3.71222 6.28164L 3.71222 8.63292L 1.35412 8.63292L 1.35412 6.28164ZM 1.53986 1.5469L 3.47566 1.5469L 3.47566 3.4827L 1.53986 3.4827L 1.53986 1.5469Z"/>
</defs>
</svg>
