<svg width="39" height="33" viewBox="0 0 39 33" version="1.1" xmlns="http://www.w3.org/2000/svg" xmlns:xlink="http://www.w3.org/1999/xlink">
<title>Capa 1 17</title>
<desc>Created using Figma</desc>
<g id="Canvas" transform="translate(-343 -2049)">
<g id="Capa 1 17">
<g id="Group">
<g id="Vector">
<use xlink:href="#path0_fill" transform="translate(343 2049)" fill="#FFFFFF"/>
</g>
</g>
</g>
</g>
<defs>
<path id="path0_fill" d="M 35.9224 6.84278C 34.2037 4.73031 31.869 3.06154 28.9186 1.83689C 25.9681 0.612247 22.7452 -1.60755e-08 19.2503 -1.60755e-08C 15.7555 -1.60755e-08 12.5327 0.612247 9.58216 1.83689C 6.63162 3.06154 4.29702 4.73001 2.57819 6.84278C 0.859298 8.95539 0 11.2577 0 13.75C 0 15.8983 0.647916 17.9113 1.94428 19.7876C 3.24063 21.6639 5.01288 23.2396 7.26185 24.5143C 7.10413 25.0871 6.91795 25.6312 6.70303 26.1473C 6.48819 26.6628 6.29487 27.0855 6.123 27.4151C 5.95097 27.7442 5.71844 28.1096 5.42459 28.5103C 5.13118 28.9116 4.90919 29.1946 4.75876 29.3594C 4.60848 29.5242 4.36143 29.7959 4.01746 30.1757C 3.67393 30.5551 3.45179 30.8026 3.35163 30.9172C 3.33711 30.9245 3.27992 30.9885 3.17968 31.1109C 3.07952 31.2324 3.02925 31.2929 3.02925 31.2929L 2.90035 31.4863C 2.82863 31.5932 2.79642 31.6614 2.8035 31.6897C 2.81072 31.7186 2.79642 31.7902 2.7606 31.9045C 2.72471 32.0193 2.7284 32.1053 2.77129 32.1625L 2.77129 32.1841C 2.82863 32.4275 2.94309 32.6246 3.11496 32.7749C 3.28684 32.9248 3.48054 33 3.69515 33L 3.80269 33C 4.73393 32.8852 5.55026 32.7281 6.25198 32.5275C 10.0048 31.568 13.2992 29.8348 16.1351 27.3281C 17.2092 27.4427 18.2477 27.4999 19.2502 27.4999C 22.745 27.4999 25.968 26.8877 28.9184 25.6627C 31.8689 24.4379 34.2036 22.7697 35.9222 20.6572C 37.6412 18.5447 38.5006 16.2422 38.5006 13.7499C 38.5007 11.258 37.6414 8.95539 35.9224 6.84278ZM 33.5053 19.2287C 32.0081 20.9186 29.9886 22.2616 27.4463 23.2569C 24.904 24.2519 22.1717 24.75 19.2498 24.75C 18.3762 24.75 17.4453 24.6928 16.457 24.578L 15.2324 24.4495L 14.3085 25.2661C 12.547 26.8131 10.5774 28.0375 8.40026 28.94C 9.05901 27.78 9.56034 26.5481 9.90424 25.2449L 10.4843 23.1822L 8.61518 22.1083C 6.75315 21.0478 5.31028 19.7911 4.28595 18.3372C 3.26178 16.8837 2.74992 15.3543 2.74992 13.7503C 2.74992 11.7879 3.4983 9.96188 4.99497 8.27173C 6.4921 6.58173 8.51141 5.23886 11.0539 4.24344C 13.5963 3.24793 16.3282 2.74977 19.2503 2.74977C 22.1721 2.74977 24.9039 3.24771 27.4462 4.24314C 29.9884 5.23864 32.008 6.58143 33.5052 8.27143C 35.002 9.96158 35.7503 11.7877 35.7503 13.7499C 35.7503 15.7121 35.002 17.5386 33.5053 19.2287Z"/>
</defs>
</svg>
