<svg width="31" height="33" viewBox="0 0 31 33" version="1.1" xmlns="http://www.w3.org/2000/svg" xmlns:xlink="http://www.w3.org/1999/xlink">
<title>Capa 1 6</title>
<desc>Created using Figma</desc>
<g id="Canvas" transform="translate(-107 -2049)">
<g id="Capa 1 6">
<g id="Group">
<g id="Group">
<g id="Vector">
<use xlink:href="#path0_fill" transform="translate(113.875 2049)" fill="#FFFFFF"/>
</g>
<g id="Vector">
<use xlink:href="#path1_fill" transform="translate(107 2064.12)" fill="#FFFFFF"/>
</g>
</g>
</g>
</g>
</g>
<defs>
<path id="path0_fill" d="M 8.25028 16.5002C 10.5282 16.5002 12.4725 15.6942 14.0836 14.083C 15.6949 12.4718 16.5007 10.5275 16.5007 8.24991C 16.5007 5.97264 15.6949 4.02829 14.0836 2.4167C 12.472 0.805568 10.5276 0 8.25028 0C 5.97294 0 4.02829 0.805568 2.41716 2.4167C 0.805719 4.02829 -1.65348e-07 5.97257 -1.65348e-07 8.24991C -1.65348e-07 10.5275 0.805719 12.4718 2.41716 14.083C 4.02874 15.6942 5.97287 16.5002 8.25028 16.5002Z"/>
<path id="path1_fill" d="M 30.1751 10.087C 30.1249 9.36393 30.0245 8.58312 29.8743 7.74512C 29.7239 6.90712 29.5339 6.13045 29.3047 5.41398C 29.0755 4.69803 28.7675 3.9997 28.3808 3.31927C 27.9942 2.63892 27.5502 2.05896 27.0486 1.57893C 26.547 1.09905 25.9348 0.716169 25.212 0.429762C 24.4883 0.14343 23.6897 3.30695e-07 22.816 3.30695e-07C 22.6872 3.30695e-07 22.3864 0.153964 21.9136 0.461969C 21.4414 0.769974 20.9077 1.1138 20.3133 1.49352C 19.719 1.87256 18.9451 2.21661 17.993 2.52409C 17.0405 2.83209 16.0846 2.98613 15.1246 2.98613C 14.165 2.98613 13.209 2.83209 12.2566 2.52409C 11.3043 2.21661 10.5306 1.87256 9.93622 1.49352C 9.34188 1.1138 8.80842 0.770049 8.33584 0.461969C 7.86304 0.153964 7.56241 3.30695e-07 7.4335 3.30695e-07C 6.55983 3.30695e-07 5.76126 0.14343 5.03802 0.429762C 4.31463 0.716169 3.70238 1.09935 3.20098 1.57893C 2.69973 2.05896 2.25567 2.63892 1.8691 3.31927C 1.48253 3.9997 1.1746 4.69833 0.945386 5.41398C 0.716245 6.13045 0.526385 6.90712 0.376032 7.74512C 0.225529 8.58312 0.125294 9.3634 0.0751011 10.087C 0.0249836 10.8106 -2.64097e-08 11.5519 -2.64097e-08 12.311C -2.64097e-08 14.0295 0.522923 15.3869 1.56839 16.3824C 2.61409 17.3775 4.00353 17.875 5.73658 17.875L 24.5143 17.875C 26.2472 17.875 27.6365 17.3775 28.6824 16.3824C 29.7284 15.3869 30.251 14.0297 30.251 12.311C 30.2508 11.5519 30.2259 10.8106 30.1751 10.087Z"/>
</defs>
</svg>
