<svg width="42" height="33" viewBox="0 0 42 33" version="1.1" xmlns="http://www.w3.org/2000/svg" xmlns:xlink="http://www.w3.org/1999/xlink">
<title>Capa 1 7</title>
<desc>Created using Figma</desc>
<g id="Canvas" transform="translate(141 -2049)">
<g id="Capa 1 7">
<g id="Group">
<g id="Group">
<g id="Vector">
<use xlink:href="#path0_fill" transform="translate(-135.081 2055.66)" fill="#FFFFFF"/>
</g>
<g id="Vector">
<use xlink:href="#path1_fill" transform="translate(-141 2049)" fill="#FFFFFF"/>
</g>
</g>
</g>
</g>
</g>
<defs>
<path id="path0_fill" d="M 14.815 2.69427e-07L 0.0259452 12.192C 0.0259452 12.2092 0.0216213 12.2345 0.0129729 12.269C 0.00450464 12.3033 -1.75952e-07 12.3281 -1.75952e-07 12.3458L -1.75952e-07 24.6915C -1.75952e-07 25.1372 0.162969 25.5235 0.488816 25.8488C 0.814572 26.1743 1.20033 26.3381 1.64617 26.3381L 11.5225 26.3381L 11.5225 16.4613L 18.1076 16.4613L 18.1076 26.3385L 27.9838 26.3385C 28.4296 26.3385 28.8159 26.1751 29.1412 25.8488C 29.467 25.5239 29.6305 25.1373 29.6305 24.6915L 29.6305 12.3458C 29.6305 12.2773 29.6212 12.2256 29.6046 12.192L 14.815 2.69427e-07Z"/>
<path id="path1_fill" d="M 41.1811 16.0756L 35.5486 11.3945L 35.5486 0.900426C 35.5486 0.660522 35.4715 0.463231 35.3167 0.30882C 35.1632 0.15459 34.9659 0.0774754 34.7255 0.0774754L 29.7873 0.0774754C 29.5471 0.0774754 29.3499 0.15459 29.1954 0.30882C 29.0412 0.463231 28.9642 0.660612 28.9642 0.900426L 28.9642 5.91587L 22.6885 0.66872C 22.1404 0.222877 21.4887 -4.67374e-08 20.7342 -4.67374e-08C 19.9797 -4.67374e-08 19.3281 0.222877 18.7794 0.66872L 0.285808 16.0756C 0.114371 16.2125 0.02041 16.3969 0.00293303 16.6284C -0.0144539 16.8597 0.0454544 17.0618 0.182838 17.2331L 1.77748 19.1365C 1.91486 19.2907 2.09468 19.3851 2.31764 19.4196C 2.52349 19.4369 2.72935 19.3767 2.9352 19.2396L 20.7336 4.39835L 38.5322 19.2395C 38.6697 19.3591 38.8494 19.4188 39.0724 19.4188L 39.1497 19.4188C 39.3723 19.385 39.5518 19.29 39.6899 19.1361L 41.2847 17.233C 41.4218 17.0613 41.4819 16.8596 41.4641 16.628C 41.4465 16.3971 41.3522 16.2128 41.1811 16.0756Z"/>
</defs>
</svg>
