<svg width="45" height="33" viewBox="0 0 45 33" version="1.1" xmlns="http://www.w3.org/2000/svg" xmlns:xlink="http://www.w3.org/1999/xlink">
<title>Capa 1 16</title>
<desc>Created using Figma</desc>
<g id="Canvas" transform="translate(382 -2049)">
<g id="Capa 1 16">
<g id="Group">
<g id="Vector">
<use xlink:href="#path0_fill" transform="translate(-382 2049)" fill="#FFFFFF"/>
</g>
<g id="Vector">
<use xlink:href="#path1_fill" transform="translate(-378.25 2055)" fill="#FFFFFF"/>
</g>
<g id="Vector">
<use xlink:href="#path2_fill" transform="translate(-360.25 2058.75)" fill="#FFFFFF"/>
</g>
<g id="Vector">
<use xlink:href="#path3_fill" transform="translate(-349.75 2058.75)" fill="#FFFFFF"/>
</g>
<g id="Vector">
<use xlink:href="#path4_fill" transform="translate(-360.25 2071.5)" fill="#FFFFFF"/>
</g>
<g id="Vector">
<use xlink:href="#path5_fill" transform="translate(-356.5 2071.5)" fill="#FFFFFF"/>
</g>
<g id="Vector">
<use xlink:href="#path4_fill" transform="translate(-352 2071.5)" fill="#FFFFFF"/>
</g>
<g id="Vector">
<use xlink:href="#path5_fill" transform="translate(-348.25 2071.5)" fill="#FFFFFF"/>
</g>
<g id="Vector">
<use xlink:href="#path6_fill" transform="translate(-343.75 2071.51)" fill="#FFFFFF"/>
</g>
<g id="Vector">
<use xlink:href="#path7_fill" transform="translate(-360.25 2063.25)" fill="#FFFFFF"/>
</g>
<g id="Vector">
<use xlink:href="#path7_fill" transform="translate(-360.25 2067.75)" fill="#FFFFFF"/>
</g>
</g>
</g>
</g>
<defs>
<path id="path0_fill" d="M 41.8372 0L 3.16275 0C 1.419 0 0 1.419 0 3.16275L 0 29.8372C 0 31.581 1.419 33 3.16275 33L 41.8372 33C 43.581 33 45 31.581 45 29.8372L 45 3.16275C 45 1.419 43.581 0 41.8372 0ZM 43.5 29.8372C 43.5 30.7545 42.7545 31.5 41.8372 31.5L 3.16275 31.5C 2.2455 31.5 1.5 30.7545 1.5 29.8372L 1.5 3.16275C 1.5 2.2455 2.2455 1.5 3.16275 1.5L 41.8372 1.5C 42.7545 1.5 43.5 2.2455 43.5 3.16275L 43.5 29.8372Z"/>
<path id="path1_fill" d="M 13.2315 15.1843L 10.5 13.7893L 10.5 13.4991C 11.721 12.8323 12.5798 11.7343 13.059 10.2261C 13.7858 9.84058 14.25 9.08983 14.25 8.24833L 14.25 7.49833C 14.25 6.80383 13.9268 6.15958 13.3868 5.73658C 12.9188 2.90158 10.9403 1.46458 7.5 1.46458C 7.33725 1.46458 7.17825 1.47058 7.023 1.48258C 6.1215 1.55533 5.25075 1.36108 4.605 0.927578C 4.29825 0.720578 4.0665 0.519577 3.91875 0.332827C 3.58575 -0.0931727 2.892 -0.111921 2.5365 0.286329C 2.36625 0.476829 2.286 0.733328 2.316 0.988328C 2.3475 1.26883 2.39475 1.59508 2.466 1.95283C 2.61075 2.68408 2.61075 2.68408 2.4075 3.12133C 2.331 3.28708 2.2365 3.48883 2.1255 3.76108C 1.87725 4.36933 1.701 5.03533 1.59975 5.74633C 1.068 6.17008 0.75 6.81058 0.75 7.49833L 0.75 8.24833C 0.75 9.08983 1.21425 9.84058 1.941 10.2261C 2.42025 11.7351 3.279 12.8331 4.5 13.4991L 4.5 13.7811L 1.67325 15.1746C 0.64125 15.7371 0 16.8171 0 17.9931L 0 18.9868C 0 19.5891 0 20.9983 7.5 20.9983C 15 20.9983 15 19.5891 15 18.9868L 15 18.0531C 15 16.8291 14.3205 15.7288 13.2315 15.1843Z"/>
<path id="path2_fill" d="M 0.75 1.5L 8.25 1.5C 8.66475 1.5 9 1.16475 9 0.75C 9 0.33525 8.66475 0 8.25 0L 0.75 0C 0.33525 0 0 0.33525 0 0.75C 0 1.16475 0.33525 1.5 0.75 1.5Z"/>
<path id="path3_fill" d="M 0.75 1.5L 1.5 1.5C 1.91475 1.5 2.25 1.16475 2.25 0.75C 2.25 0.33525 1.91475 0 1.5 0L 0.75 0C 0.33525 0 0 0.33525 0 0.75C 0 1.16475 0.33525 1.5 0.75 1.5Z"/>
<path id="path4_fill" d="M 1.5 0L 0.75 0C 0.33525 0 0 0.33525 0 0.75C 0 1.16475 0.33525 1.5 0.75 1.5L 1.5 1.5C 1.91475 1.5 2.25 1.16475 2.25 0.75C 2.25 0.33525 1.91475 0 1.5 0Z"/>
<path id="path5_fill" d="M 2.25 0L 0.75 0C 0.33525 0 0 0.33525 0 0.75C 0 1.16475 0.33525 1.5 0.75 1.5L 2.25 1.5C 2.66475 1.5 3 1.16475 3 0.75C 3 0.33525 2.66475 0 2.25 0Z"/>
<path id="path6_fill" d="M 0.217501 0.208126C 0.0817507 0.349876 0 0.545625 0 0.740625C 0 0.935625 0.0817507 1.13062 0.217501 1.27312C 0.359251 1.40812 0.555 1.49062 0.75 1.49062C 0.945 1.49062 1.14 1.40812 1.2825 1.27312C 1.4175 1.13062 1.5 0.935625 1.5 0.740625C 1.5 0.545625 1.4175 0.349876 1.2825 0.208126C 0.997499 -0.0693743 0.495001 -0.0693743 0.217501 0.208126Z"/>
<path id="path7_fill" d="M 17.25 0L 0.75 0C 0.33525 0 0 0.33525 0 0.75C 0 1.16475 0.33525 1.5 0.75 1.5L 17.25 1.5C 17.6647 1.5 18 1.16475 18 0.75C 18 0.33525 17.6647 0 17.25 0Z"/>
</defs>
</svg>
