<svg width="15" height="10" viewBox="0 0 15 10" version="1.1" xmlns="http://www.w3.org/2000/svg" xmlns:xlink="http://www.w3.org/1999/xlink">
<title>Group</title>
<desc>Created using Figma</desc>
<g id="Canvas" transform="translate(450 -439)">
<g id="Group">
<g id="Vector">
<use xlink:href="#path0_fill" transform="translate(-450 439)" fill="#4F4F4F"/>
</g>
<g id="Vector">
<use xlink:href="#path1_fill" transform="translate(-448.498 441.123)" fill="#4F4F4F"/>
</g>
<g id="Vector">
<use xlink:href="#path2_fill" transform="translate(-446.995 443.247)" fill="#4F4F4F"/>
</g>
<g id="Vector">
<use xlink:href="#path3_fill" transform="translate(-444.658 445.651)" fill="#4F4F4F"/>
</g>
</g>
</g>
<defs>
<path id="path0_fill" d="M 13.9574 2.87069C 12.1064 1.01942 9.641 -3.41207e-08 7.01616 -3.41207e-08C 4.39132 -3.41207e-08 1.92621 1.01917 0.0749425 2.87069C -0.0249808 2.97061 -0.0249808 3.13212 0.0749425 3.23205C 0.174866 3.33197 0.336379 3.33197 0.436302 3.23205C 2.19097 1.47713 4.52779 0.510861 7.01616 0.510861C 9.50454 0.510861 11.8414 1.47713 13.596 3.23179C 13.6459 3.28162 13.7113 3.30667 13.7767 3.30667C 13.8421 3.30667 13.9076 3.28162 13.9574 3.23179C 14.0573 3.13212 14.0573 2.97035 13.9574 2.87069Z"/>
<path id="path1_fill" d="M 0.0749425 2.24923C -0.0249808 2.34916 -0.0249808 2.51067 0.0749425 2.61059C 0.124776 2.66043 0.190199 2.68547 0.255622 2.68547C 0.321045 2.68547 0.386468 2.66043 0.436302 2.61059C 3.23594 -0.189305 7.79153 -0.189305 10.5914 2.61059C 10.6913 2.71052 10.8529 2.71052 10.9528 2.61059C 11.0527 2.51067 11.0527 2.34916 10.9528 2.24923C 7.95406 -0.749489 3.07418 -0.75 0.0749425 2.24923Z"/>
<path id="path2_fill" d="M 4.01156 -1.48181e-07C 2.52294 -1.48181e-07 1.12503 0.578329 0.0749425 1.62816C -0.0249808 1.72809 -0.0249808 1.8896 0.0749425 1.98952C 0.174866 2.08945 0.336379 2.08945 0.436302 1.98952C 1.38979 1.03629 2.6594 0.511117 4.01156 0.511117C 5.36372 0.511117 6.63334 1.03629 7.58683 1.98952C 7.63666 2.03936 7.70208 2.0644 7.76751 2.0644C 7.83293 2.0644 7.89835 2.03936 7.94819 1.98952C 8.04811 1.8896 8.04811 1.72809 7.94819 1.62816C 6.89835 0.578329 5.50019 -1.48181e-07 4.01156 -1.48181e-07Z"/>
<path id="path3_fill" d="M 1.67416 9.35883e-08C 0.751086 9.35883e-08 -3.11961e-08 0.751086 -3.11961e-08 1.67442C -3.11961e-08 2.59775 0.751086 3.34884 1.67416 3.34884C 2.5975 3.34884 3.34858 2.59775 3.34858 1.67442C 3.34858 0.751086 2.5975 9.35883e-08 1.67416 9.35883e-08Z"/>
</defs>
</svg>
