<svg width="11" height="10" viewBox="0 0 11 10" version="1.1" xmlns="http://www.w3.org/2000/svg" xmlns:xlink="http://www.w3.org/1999/xlink">
<title>Group</title>
<desc>Created using Figma</desc>
<g id="Canvas" transform="translate(395 -419)">
<g id="Group">
<g id="Group">
<g id="Vector">
<use xlink:href="#path0_fill" transform="translate(-395 419)" fill="#4F4F4F"/>
</g>
</g>
</g>
</g>
<defs>
<path id="path0_fill" d="M 10.45 4.8077L 10.414 4.8077L 9.58836 0.442311C 9.53336 0.192321 9.31336 3.0066e-08 9.05669 3.0066e-08L 1.94335 3.0066e-08C 1.68668 3.0066e-08 1.46668 0.192298 1.41168 0.461533L 0.586362 4.8077L 0.549995 4.8077C 0.238324 4.8077 0 5.05769 0 5.38462L 0 7.50001L 0 7.88463L 0 8.84617L 0 9.23079L 0 9.42308C 0 9.75001 0.238324 10 0.549995 10L 1.79666 10C 1.99833 10 2.18165 9.88462 2.27333 9.67307L 2.48906 9.23076L 8.50242 9.23076L 8.70835 9.67307C 8.80002 9.88462 9.00169 10 9.20334 10L 10.45 10C 10.7617 10 11 9.75001 11 9.42308L 11 9.23079L 11 8.84617L 11 7.88463L 11 7.50001L 11 5.38462C 11 5.05769 10.7617 4.8077 10.45 4.8077ZM 1.76 0.538448C 1.77833 0.442288 1.85168 0.384596 1.94333 0.384596L 9.05669 0.384596C 9.14837 0.384596 9.22169 0.461511 9.24002 0.538448L 10.0467 4.80768L 9.18069 4.80768C 8.69332 3.10183 7.2091 1.92307 5.50001 1.92307C 3.79092 1.92307 2.3067 3.10183 1.81933 4.8077L 0.953338 4.8077L 1.76 0.538448ZM 8.80002 4.8077L 2.2 4.8077C 2.67667 3.32692 3.99668 2.30769 5.50001 2.30769C 7.00334 2.30769 8.32335 3.32692 8.80002 4.8077ZM 1.96168 9.50002C 1.925 9.57693 1.87 9.6154 1.79668 9.6154L 0.549995 9.6154C 0.439996 9.6154 0.36667 9.53849 0.36667 9.42311L 0.36667 9.23081L 2.09 9.23081L 1.96168 9.50002ZM 10.6334 9.42308C 10.6334 9.53847 10.56 9.61538 10.45 9.61538L 9.20339 9.61538C 9.13006 9.61538 9.07506 9.55769 9.03839 9.5L 8.91006 9.23076L 10.6334 9.23076L 10.6334 9.42308L 10.6334 9.42308ZM 10.6334 8.84617L 8.32335 8.84617L 2.67667 8.84617L 0.36667 8.84617L 0.36667 7.88463L 10.6334 7.88463L 10.6334 8.84617ZM 0.36667 7.50001L 0.36667 6.92309L 0.916665 6.92309C 1.02666 6.92309 1.09999 6.84618 1.09999 6.7308C 1.09999 6.61541 1.02666 6.5385 0.916665 6.5385L 0.36667 6.5385L 0.36667 6.15388L 0.916665 6.15388C 1.02666 6.15388 1.09999 6.07696 1.09999 5.96158C 1.09999 5.8462 1.02666 5.76928 0.916665 5.76928L 0.36667 5.76928L 0.36667 5.38462C 0.36667 5.26924 0.439996 5.19232 0.549995 5.19232L 1.72333 5.19232L 9.27669 5.19232L 10.45 5.19232C 10.56 5.19232 10.6334 5.26924 10.6334 5.38462L 10.6334 5.76924L 9.90001 5.76924C 9.79001 5.76924 9.71669 5.84615 9.71669 5.96154C 9.71669 6.07692 9.79001 6.15383 9.90001 6.15383L 10.6334 6.15383L 10.6334 6.53845L 9.90001 6.53845C 9.79001 6.53845 9.71669 6.61537 9.71669 6.73075C 9.71669 6.84613 9.79001 6.92305 9.90001 6.92305L 10.6334 6.92305L 10.6334 7.49997L 0.36667 7.49997L 0.36667 7.50001Z"/>
</defs>
</svg>
