<svg width="10" height="10" viewBox="0 0 10 10" version="1.1" xmlns="http://www.w3.org/2000/svg" xmlns:xlink="http://www.w3.org/1999/xlink">
<title>Group</title>
<desc>Created using Figma</desc>
<g id="Canvas" transform="translate(313 -419)">
<g id="Group">
<g id="Group">
<g id="Group">
<g id="Vector">
<use xlink:href="#path0_fill" transform="translate(-313 419)" fill="#828282"/>
</g>
<g id="Vector">
<use xlink:href="#path1_fill" transform="translate(-312.333 421.928)" fill="#828282"/>
</g>
<g id="Vector">
<use xlink:href="#path2_fill" transform="translate(-305.333 422.79)" fill="#828282"/>
</g>
<g id="Vector">
<use xlink:href="#path3_fill" transform="translate(-305.333 423.48)" fill="#828282"/>
</g>
<g id="Vector">
<use xlink:href="#path4_fill" transform="translate(-305.333 424.17)" fill="#828282"/>
</g>
<g id="Vector">
<use xlink:href="#path5_fill" transform="translate(-305.333 424.86)" fill="#828282"/>
</g>
<g id="Vector">
<use xlink:href="#path6_fill" transform="translate(-311.667 422.618)" fill="#828282"/>
</g>
<g id="Vector">
<use xlink:href="#path7_fill" transform="translate(-311.667 423.998)" fill="#828282"/>
</g>
<g id="Vector">
<use xlink:href="#path8_fill" transform="translate(-310.5 422.445)" fill="#828282"/>
</g>
<g id="Vector">
<use xlink:href="#path9_fill" transform="translate(-311 423.48)" fill="#828282"/>
</g>
</g>
</g>
</g>
</g>
<defs>
<path id="path0_fill" d="M 9.33338 2.23797L 5.30506 2.23797L 6.48337 0.271593C 6.53337 0.185342 6.51671 0.08185 6.43337 0.0301038C 6.35003 -0.0216424 6.25003 -0.00440052 6.20003 0.08185L 4.99766 2.0884L 3.63335 0.0645875C 3.58335 -0.00440053 3.48335 -0.021663 3.40001 0.0300832C 3.33335 0.0818294 3.31667 0.185322 3.36667 0.271572L 4.69226 2.23795L 0.666675 2.23795C 0.299998 2.23797 0 2.54845 0 2.92793L 0 8.79257C 0 9.17206 0.299998 9.48254 0.666675 9.48254L 0.833333 9.48254L 0.833333 9.82752C 0.833333 9.93101 0.899993 10 0.999992 10C 1.09999 10 1.16665 9.93101 1.16665 9.82752L 1.16665 9.48254L 8.83335 9.48254L 8.83335 9.82752C 8.83335 9.93101 8.90001 10 9.00001 10C 9.10001 10 9.16667 9.93101 9.16667 9.82752L 9.16667 9.48254L 9.33333 9.48254C 9.7 9.48254 10 9.17206 10 8.79257L 10 2.92793C 10.0001 2.54845 9.70004 2.23797 9.33338 2.23797ZM 9.66672 8.79257C 9.66672 8.98232 9.51672 9.13756 9.33338 9.13756L 0.666675 9.13756C 0.483336 9.13756 0.333337 8.98232 0.333337 8.79257L 0.333337 2.92793C 0.333337 2.73819 0.483336 2.58295 0.666675 2.58295L 9.33338 2.58295C 9.51672 2.58295 9.66672 2.73819 9.66672 2.92793L 9.66672 8.79257Z"/>
<path id="path1_fill" d="M 5.66671 1.2543e-07L 1.00001 1.2543e-07C 0.450016 1.2543e-07 3.6965e-08 0.465716 3.6965e-08 1.03494L 3.6965e-08 4.82972C 3.6965e-08 5.39893 0.449996 5.86466 1.00001 5.86466L 5.66669 5.86466C 6.21669 5.86466 6.66671 5.39895 6.66671 4.82972L 6.66671 1.03492C 6.66671 0.465716 6.21671 1.2543e-07 5.66671 1.2543e-07ZM 6.33339 4.8297C 6.33339 5.20919 6.03339 5.51966 5.66671 5.51966L 1.00001 5.51966C 0.633335 5.51966 0.333337 5.20919 0.333337 4.8297L 0.333337 1.03492C 0.333337 0.655438 0.633335 0.344961 1.00001 0.344961L 5.66669 0.344961C 6.03337 0.344961 6.33337 0.655438 6.33337 1.03492L 6.33337 4.8297L 6.33339 4.8297Z"/>
<path id="path2_fill" d="M 1.50001 2.75947e-08L 0.166659 2.75947e-08C 0.0666595 2.75947e-08 -1.5998e-07 0.0689882 -1.5998e-07 0.172481C -1.5998e-07 0.275973 0.0666595 0.344961 0.166659 0.344961L 1.50001 0.344961C 1.60001 0.344961 1.66667 0.275973 1.66667 0.172481C 1.66667 0.0689882 1.60001 2.75947e-08 1.50001 2.75947e-08Z"/>
<path id="path3_fill" d="M 1.50001 1.32956e-07L 0.166659 1.32956e-07C 0.0666595 1.32956e-07 -1.5998e-07 0.068988 -1.5998e-07 0.17248C -1.5998e-07 0.275973 0.0666595 0.344961 0.166659 0.344961L 1.50001 0.344961C 1.60001 0.344961 1.66667 0.275973 1.66667 0.17248C 1.66667 0.068988 1.60001 1.32956e-07 1.50001 1.32956e-07Z"/>
<path id="path4_fill" d="M 1.50001 -2.20757e-07L 0.166659 -2.20757e-07C 0.0666595 -2.20757e-07 -1.5998e-07 0.068988 -1.5998e-07 0.17248C -1.5998e-07 0.275973 0.0666595 0.344961 0.166659 0.344961L 1.50001 0.344961C 1.60001 0.344961 1.66667 0.275973 1.66667 0.17248C 1.66667 0.068988 1.60001 -2.20757e-07 1.50001 -2.20757e-07Z"/>
<path id="path5_fill" d="M 1.50001 -1.15396e-07L 0.166659 -1.15396e-07C 0.0666595 -1.15396e-07 -1.5998e-07 0.0689881 -1.5998e-07 0.17248L -1.5998e-07 1.55241C -1.5998e-07 1.6559 0.0666595 1.72489 0.166659 1.72489L 1.50001 1.72489C 1.60001 1.72489 1.66667 1.6559 1.66667 1.55241L 1.66667 0.17248C 1.66669 0.0690086 1.60001 -1.15396e-07 1.50001 -1.15396e-07ZM 1.33335 1.37993L 0.333338 1.37993L 0.333338 0.344982L 1.33335 0.344982L 1.33335 1.37993Z"/>
<path id="path6_fill" d="M 0.716649 0.0517409L 0.0499946 0.741704C -0.0166649 0.810692 -0.0166649 0.914185 0.0499946 0.983193C 0.0833343 1.0177 0.116654 1.03494 0.166654 1.03494C 0.216653 1.03494 0.249993 1.0177 0.283313 0.983193L 0.949987 0.29323C 1.01665 0.224242 1.01665 0.12075 0.949987 0.0517409C 0.883328 -0.0172471 0.783329 -0.0172471 0.716649 0.0517409Z"/>
<path id="path7_fill" d="M 0.216653 0.0517411L 0.0499946 0.224221C -0.0166649 0.293209 -0.0166649 0.396702 0.0499946 0.465711C 0.0833343 0.500215 0.116654 0.517457 0.166654 0.517457C 0.216653 0.517457 0.249993 0.500215 0.283313 0.465711L 0.449972 0.29323C 0.516631 0.224242 0.516631 0.12075 0.449972 0.0517411C 0.383312 -0.0172469 0.283313 -0.0172469 0.216653 0.0517411Z"/>
<path id="path8_fill" d="M 0.549991 0.0517488L 0.0499946 0.569211C -0.0166649 0.638199 -0.0166649 0.741691 0.0499946 0.8107C 0.0833343 0.845204 0.116654 0.862446 0.166654 0.862446C 0.216653 0.862446 0.249993 0.845204 0.283313 0.8107L 0.783309 0.293238C 0.849969 0.22425 0.849969 0.120757 0.783309 0.0517488C 0.71665 -0.0172598 0.61665 -0.0172392 0.549991 0.0517488Z"/>
<path id="path9_fill" d="M 0.166659 1.32956e-07C 0.0666595 1.32956e-07 2.42393e-09 0.068988 2.42393e-09 0.17248C 2.42393e-09 0.275973 0.0666595 0.344961 0.166659 0.344961C 0.266658 0.344961 0.333318 0.275973 0.333318 0.17248C 0.333318 0.068988 0.266658 1.32956e-07 0.166659 1.32956e-07Z"/>
</defs>
</svg>
